<?xml version="1.0" standalone="no"?>
<!DOCTYPE svg PUBLIC "-//W3C//DTD SVG 20010904//EN"
 "http://www.w3.org/TR/2001/REC-SVG-20010904/DTD/svg10.dtd">
<svg version="1.0" xmlns="http://www.w3.org/2000/svg"
 width="512.000000pt" height="512.000000pt" viewBox="0 0 512.000000 512.000000"
 preserveAspectRatio="xMidYMid meet">
<metadata>
Created by potrace 1.14, written by Peter Selinger 2001-2017
</metadata>
<g transform="translate(0.000000,512.000000) scale(0.100000,-0.100000)"
fill="#000000" stroke="none">
<path d="M2242 4891 c-100 -5 -185 -10 -188 -13 -2 -3 -1 -70 3 -148 l8 -143
155 2 c85 1 184 4 220 7 97 9 358 -13 500 -42 307 -63 616 -209 856 -405 386
-316 642 -780 709 -1287 17 -132 20 -377 4 -489 -73 -538 -411 -1123 -799
-1385 -41 -27 -75 -53 -75 -57 0 -17 128 -251 137 -251 17 0 96 48 163 98 147
110 278 247 407 422 223 303 385 680 450 1040 26 147 35 435 19 592 -82 788
-550 1475 -1239 1818 -401 199 -761 264 -1330 241z"/>
<path d="M1560 4683 c-79 -12 -287 -110 -411 -193 -425 -286 -770 -837 -874
-1395 -38 -204 -49 -373 -36 -523 35 -395 116 -695 268 -997 220 -439 541
-769 978 -1005 265 -144 679 -250 976 -250 l69 0 0 148 0 149 -109 6 c-495 29
-924 218 -1267 561 -227 227 -399 510 -503 826 -78 241 -111 443 -111 692 0
182 10 268 51 430 92 369 274 694 526 939 93 91 215 189 234 189 5 0 9 -416 9
-985 l0 -985 775 0 775 0 0 125 0 125 -656 0 -656 0 3 1072 c3 709 1 1072 -6
1073 -6 1 -21 0 -35 -2z"/>
<path d="M1795 3330 c-3 -5 95 -257 108 -278 6 -9 108 -12 433 -12 349 0 439
-3 502 -16 167 -34 318 -112 438 -226 189 -180 188 -360 -6 -603 -96 -120
-197 -202 -323 -260 -120 -55 -175 -66 -369 -72 -98 -3 -178 -7 -178 -9 0 -1
59 -139 131 -306 72 -166 151 -350 176 -408 189 -439 327 -760 340 -787 l15
-33 159 0 c88 0 159 3 159 6 0 3 -20 47 -44 97 -24 51 -108 241 -186 422 -78
182 -182 422 -231 535 -49 112 -85 207 -81 211 4 3 39 14 77 23 96 24 255 102
350 173 137 102 286 277 358 418 140 279 105 535 -103 758 -168 180 -389 300
-635 346 -99 18 -160 20 -598 23 -269 2 -490 1 -492 -2z"/>
</g>
</svg>
