<svg xmlns="http://www.w3.org/2000/svg" style="display: none;">
  <symbol id="icon-success" viewBox="0 0 24 24" fill="none" stroke="currentColor">
    <path stroke-linecap="round" stroke-linejoin="round" stroke-width="2" d="M5 13l4 4L19 7" />
  </symbol>
  <symbol id="icon-error" viewBox="0 0 24 24" fill="none" stroke="currentColor">
    <path stroke-linecap="round" stroke-linejoin="round" stroke-width="2" d="M6 18L18 6M6 6l12 12" />
  </symbol>
  <symbol id="icon-warning" viewBox="0 0 24 24" fill="none" stroke="currentColor">
    <path stroke-linecap="round" stroke-linejoin="round" stroke-width="2" d="M13 16h-1v-4h-1m1-4h.01M12 2a10 10 0 110 20 10 10 0 010-20z" />
  </symbol>
  <symbol id="icon-info" viewBox="0 0 24 24" fill="none" stroke="currentColor">
    <path stroke-linecap="round" stroke-linejoin="round" stroke-width="2" d="M13 16h-1v-4h-1m1-4h.01M12 2a10 10 0 110 20 10 10 0 010-20z" />
  </symbol>
  <symbol id="icon-star" viewBox="0 0 24 24" fill="currentColor" stroke="currentColor">
    <path stroke-linecap="round" stroke-linejoin="round" stroke-width="2" d="M11.049 2.927c.3-.921 1.603-.921 1.902 0l1.519 4.674a1 1 0 00.95.69h4.915c.969 0 1.371 1.24.588 1.81l-3.976 2.888a1 1 0 00-.363 1.118l1.518 4.674c.3.922-.755 1.688-1.538 1.118l-3.976-2.888a1 1 0 00-1.176 0l-3.976 2.888c-.783.57-1.838-.197-1.538-1.118l1.518-4.674a1 1 0 00-.363-1.118l-3.976-2.888c-.784-.57-.38-1.81.588-1.81h4.914a1 1 0 00.951-.69l1.519-4.674z"></path>
  </symbol>
</svg>